<svg width="88" height="100" viewBox="0 0 88 100" fill="none" xmlns="http://www.w3.org/2000/svg">
<path d="M86.1059 70.5412C86.1059 70.5409 86.1059 70.5409 86.1059 70.5412C84.9763 69.8892 84.1684 68.8367 83.8309 67.5768C83.4932 66.3169 83.6666 65.0011 84.3196 63.8707C85.3197 62.1379 85.8482 60.1673 85.8482 58.1726C85.8482 55.0683 84.5755 52.1268 82.4097 50.0048C83.8661 48.5886 84.9195 46.8015 85.4589 44.7876C86.2475 41.8437 85.8428 38.7688 84.3196 36.1291C83.8896 35.3843 83.6625 34.5424 83.6625 33.694C83.6625 31.9536 84.5979 30.3316 86.1043 29.4595C86.1052 29.4591 86.1061 29.4584 86.107 29.458C86.107 29.458 86.1072 29.4577 86.1074 29.4577C87.668 28.5558 88.202 26.5595 87.3003 24.9987C86.3985 23.4381 84.4025 22.9036 82.8414 23.8056C81.7123 24.458 80.3967 24.631 79.1366 24.2937C77.8767 23.956 76.8242 23.148 76.1714 22.0169C74.137 18.4968 70.3482 16.3102 66.283 16.3102C65.2407 16.3102 64.2045 16.4551 63.2048 16.7364C61.9458 11.8046 57.4654 8.14671 52.1469 8.14671C50.8421 8.14671 49.6158 7.63883 48.6955 6.7186C47.7723 5.79381 47.2637 4.56698 47.2637 3.26378C47.2637 1.46118 45.8023 -0.000213623 43.9997 -0.000213623C42.1971 -0.000213623 40.7357 1.46118 40.7357 3.26378C40.7357 5.95635 38.5452 8.14671 35.8526 8.14671C32.8042 8.14671 29.9387 9.3335 27.7818 11.4903C26.3111 12.9635 25.2914 14.7665 24.7927 16.7317C22.8399 16.18 20.7675 16.1618 18.7556 16.7008C15.811 17.4898 13.3506 19.3783 11.8281 22.0165C10.9566 23.5247 9.33331 24.4614 7.59186 24.4614C6.74366 24.4614 5.90155 24.2343 5.15692 23.8045C3.59587 22.9037 1.60004 23.4385 0.698747 24.9991C-0.20255 26.56 0.331875 28.556 1.8925 29.4577C1.89293 29.458 1.89315 29.458 1.89359 29.4582C1.89402 29.4584 1.89446 29.4588 1.89511 29.4591C4.22429 30.8064 5.02506 33.7978 3.68008 36.1287C2.67825 37.8643 2.14883 39.8344 2.14883 41.8267C2.14883 44.9308 3.422 47.8723 5.58929 49.9946C4.1329 51.4105 3.07929 53.1978 2.53964 55.2113C1.75062 58.1561 2.15558 61.2316 3.67986 63.8702C4.1081 64.6122 4.3344 65.4543 4.3344 66.3052C4.3344 68.0488 3.39916 69.6716 1.89359 70.5403C0.33231 71.4414 -0.203202 73.4374 0.697877 74.9987C1.59896 76.5602 3.59478 77.0953 5.15627 76.1944C5.15845 76.1931 5.16041 76.192 5.16258 76.1907C7.49351 74.8507 10.4818 75.6528 11.8266 77.9805C13.8583 81.5017 17.6476 83.689 21.716 83.689C22.7583 83.689 23.7943 83.544 24.7942 83.2625C26.0534 88.1944 30.5338 91.8522 35.8524 91.8522C37.1571 91.8522 38.3835 92.3601 39.3037 93.2803C40.227 94.2051 40.7355 95.4322 40.7355 96.7354C40.7355 98.5379 42.1969 99.9993 43.9995 99.9993C45.8021 99.9993 47.2635 98.5379 47.2635 96.7354C47.2635 94.0428 49.4541 91.8522 52.1464 91.8522C55.1948 91.8522 58.0606 90.6654 60.2172 88.5086C61.6882 87.0354 62.7076 85.2324 63.2064 83.2673C65.1591 83.8189 67.2317 83.8374 69.2426 83.2981C72.1858 82.5094 74.6464 80.6212 76.172 77.9805C77.0407 76.4749 78.6635 75.5396 80.4072 75.5396C81.258 75.5396 82.1001 75.7662 82.8421 76.1942L82.8423 76.1944C84.4038 77.0955 86.3999 76.5602 87.3007 74.9987C88.2024 73.4383 87.6672 71.442 86.1059 70.5412ZM63.8483 23.4953C64.5929 23.0655 65.435 22.8384 66.2832 22.8384C68.0247 22.8384 69.648 23.7754 70.5184 25.2816C72.0418 27.9217 74.5024 29.8103 77.4469 30.5993C77.4835 30.6091 77.5201 30.6186 77.5566 30.6282C77.28 31.615 77.1345 32.6456 77.1345 33.6944C77.1345 35.6865 77.6639 37.6569 78.6655 39.3925C79.3176 40.5225 79.4909 41.8389 79.1534 43.0991C78.8159 44.359 78.0083 45.4113 76.8786 46.0634L75.1937 47.0363C74.3176 37.7437 69.3681 29.6185 62.1527 24.4728L63.8483 23.4953ZM43.9993 74.8079C30.3203 74.8079 19.1917 63.6792 19.1917 50.0002C19.1917 36.3213 30.3203 25.1928 43.9993 25.1928C57.6782 25.1928 68.8067 36.3215 68.8067 50.0002C68.8067 63.6792 57.6782 74.8079 43.9993 74.8079ZM32.3997 16.105C33.3219 15.183 34.5483 14.6751 35.8528 14.6751C39.0389 14.6751 41.9236 13.363 43.9958 11.2503C44.023 11.278 44.0502 11.3056 44.0776 11.333C46.2327 13.4881 49.0983 14.6749 52.1469 14.6749C54.8394 14.6749 57.0298 16.8655 57.0298 19.5578V21.5056C53.0595 19.6827 48.6461 18.6644 43.9991 18.6644C39.3525 18.6644 34.9395 19.6823 30.9697 21.5049V19.5578C30.9699 18.2549 31.4782 17.0278 32.3997 16.105ZM9.3344 39.3922C10.9264 36.6333 11.2319 33.4781 10.4381 30.6273C13.3674 29.8692 15.9324 27.962 17.4815 25.2816C18.1332 24.1522 19.186 23.3443 20.4457 23.0068C21.7058 22.6691 23.0212 22.8423 24.151 23.4951L25.845 24.4734C18.6302 29.6192 13.6812 37.7437 12.8049 47.0356L11.1205 46.063C9.61358 45.1934 8.67725 43.5706 8.67725 41.8278C8.67725 40.9792 8.90442 40.1371 9.3344 39.3922ZM24.1516 76.5047C23.407 76.9345 22.5649 77.1616 21.7167 77.1616C19.9739 77.1616 18.3511 76.2255 17.4807 74.7171C15.887 71.9582 13.3065 70.116 10.4398 69.3783C10.717 68.3898 10.863 67.357 10.863 66.3056C10.863 64.3109 10.3343 62.3403 9.33375 60.6065C8.68138 59.4773 8.50817 58.1615 8.84567 56.9016C9.18317 55.6417 9.99111 54.589 11.1213 53.9368L12.8047 52.9646C13.6807 62.2565 18.6298 70.3812 25.8443 75.527L24.1516 76.5047ZM55.6002 83.895C54.6782 84.817 53.4518 85.3249 52.1471 85.3249C48.961 85.3249 46.0763 86.637 44.0041 88.7497C43.9769 88.7218 43.9497 88.6944 43.9223 88.6668C41.7672 86.5117 38.9016 85.3249 35.853 85.3249C33.1604 85.3249 30.9701 83.1343 30.9701 80.4419V78.4955C34.94 80.3179 39.3529 81.3358 43.9995 81.3358C48.6466 81.3358 53.0599 80.3177 57.0302 78.4946V80.4419C57.03 81.7451 56.5215 82.9722 55.6002 83.895ZM78.6662 60.6065C77.1414 63.2462 76.7363 66.3217 77.5253 69.2665C77.5351 69.303 77.5451 69.3394 77.5553 69.3759C74.626 70.1347 72.0635 72.0404 70.5192 74.7169C69.1721 77.0491 66.1803 77.8514 63.8463 76.5032L62.153 75.5275C69.3681 70.3814 74.3176 62.2563 75.1935 52.9637L76.8792 53.9372C78.3848 54.8061 79.32 56.429 79.32 58.1724C79.3203 59.0234 79.094 59.8655 78.6662 60.6065Z" fill="#E0E0E0"/>
<path d="M43.9993 29.8098C32.8663 29.8098 23.8087 38.8672 23.8087 50.0002C23.8087 61.1333 32.8663 70.1908 43.9993 70.1908C55.1324 70.1908 64.1897 61.1333 64.1897 50.0002C64.1897 38.8672 55.1324 29.8098 43.9993 29.8098ZM43.9993 63.6626C36.4658 63.6626 30.3367 57.5335 30.3367 50C30.3367 42.4665 36.4658 36.3376 43.9993 36.3376C51.5328 36.3376 57.6618 42.4665 57.6618 50C57.6618 57.5335 51.5328 63.6626 43.9993 63.6626Z" fill="#E0E0E0"/>
<path d="M43.9984 46.7358C43.1388 46.7358 42.2989 47.084 41.6918 47.6932C41.0847 48.3003 40.7344 49.1403 40.7344 49.9998C40.7344 50.8593 41.0847 51.7014 41.6918 52.3085C42.2989 52.9156 43.141 53.2638 43.9984 53.2638C44.8579 53.2638 45.7 52.9156 46.3071 52.3085C46.9142 51.7014 47.2624 50.8593 47.2624 49.9998C47.2624 49.1403 46.9142 48.3003 46.3071 47.6932C45.7 47.0837 44.8579 46.7358 43.9984 46.7358Z" fill="#E0E0E0"/>
</svg>
