<svg width="39" height="89" viewBox="0 0 39 89" fill="none" xmlns="http://www.w3.org/2000/svg">
<path d="M36.3008 56.8722H35.3771V43.8343C35.3771 42.7311 34.4827 41.8372 33.38 41.8372H31.6582V7.18725C31.8863 4.98608 31.3653 3.0599 30.0094 1.70387C26.5647 -1.74035 19.4496 0.180445 13.4583 6.17193C10.8098 8.82036 8.83413 11.8684 7.89459 14.7548C7.42734 16.1908 7.23422 17.5309 7.30618 18.7362C7.29819 18.8087 7.29314 18.8818 7.29314 18.9562V41.8375H5.61971C4.5166 41.8375 3.6226 42.7317 3.6226 43.8346V56.8725H2.69889C1.59595 56.8725 0.701782 57.7667 0.701782 58.8696V87.0029C0.701782 88.1058 1.59595 89 2.69889 89H36.3008C37.4035 89 38.2979 88.1058 38.2979 87.0029V58.8693C38.2979 57.7663 37.4037 56.8722 36.3008 56.8722ZM11.6927 15.9907C12.4301 13.7253 14.103 11.1757 16.2828 8.9961C19.7698 5.50912 23.3713 4.01282 25.5296 4.01282C26.2748 4.01282 26.8484 4.19134 27.1849 4.52804C28.0429 5.38605 27.8734 7.77844 26.3419 10.6435C26.3142 10.6946 26.2859 10.7458 26.2575 10.7971C26.2094 10.8853 26.1612 10.973 26.1103 11.0617C25.4729 12.1665 24.666 13.286 23.7257 14.3545C23.7193 14.3616 23.7132 14.3689 23.7068 14.3761C23.567 14.5344 23.4236 14.6914 23.2781 14.8473C23.2536 14.8736 23.23 14.8996 23.2055 14.9259C23.0457 15.0957 22.8832 15.264 22.7169 15.4302C21.8997 16.2477 21.0302 16.9936 20.1433 17.6458C18.6653 18.7329 17.1382 19.5591 15.7222 20.0199C15.6868 20.0315 15.652 20.0413 15.6165 20.0524C15.5418 20.0757 15.4669 20.0997 15.3937 20.1209C15.3521 20.1329 15.312 20.1428 15.2711 20.1541C15.2046 20.1723 15.138 20.1913 15.0726 20.2076C15.0292 20.2186 14.9867 20.2274 14.9438 20.2375C14.8825 20.252 14.8207 20.2671 14.7606 20.2796C14.7156 20.2892 14.6721 20.2966 14.6278 20.3051C14.5711 20.3161 14.5138 20.3279 14.4583 20.3373C14.4131 20.3449 14.3695 20.3505 14.3252 20.3573C14.272 20.3653 14.2184 20.374 14.1666 20.3806C14.122 20.3861 14.0788 20.3898 14.0349 20.3943C13.985 20.3995 13.9346 20.4054 13.8857 20.4094C13.8424 20.4129 13.8007 20.4143 13.7581 20.4166C13.7109 20.4192 13.6627 20.4225 13.6163 20.424C13.5744 20.4253 13.5341 20.4244 13.493 20.4244C13.4484 20.4244 13.403 20.4254 13.3594 20.4242C13.3189 20.423 13.2801 20.42 13.2405 20.4176C13.1986 20.4152 13.156 20.4136 13.1153 20.4098C13.0769 20.4063 13.0406 20.4009 13.0032 20.3964C12.9634 20.3915 12.9231 20.3874 12.8848 20.3813C12.8488 20.3755 12.8149 20.3679 12.7802 20.3611C12.7428 20.3538 12.7049 20.3469 12.6689 20.3383C12.6357 20.3303 12.6044 20.3206 12.5723 20.3116C12.5372 20.3017 12.5015 20.2925 12.4678 20.2812C12.4372 20.2709 12.4089 20.2593 12.3795 20.2478C12.347 20.2353 12.3136 20.2233 12.2827 20.2094C12.2549 20.197 12.2291 20.1831 12.2027 20.1699C12.1728 20.1548 12.1422 20.1402 12.1139 20.1238C12.0892 20.1094 12.0661 20.0934 12.0426 20.0781C12.0155 20.0604 11.9879 20.043 11.9623 20.0241C11.9401 20.0075 11.9199 19.9893 11.8991 19.9716C11.8747 19.9507 11.8497 19.9305 11.8269 19.9085C11.8189 19.9001 11.8111 19.8914 11.8029 19.8831C11.8003 19.8803 11.7975 19.8777 11.7948 19.8749C11.1563 19.2074 11.1168 17.7601 11.6927 15.9907ZM11.2872 24.1054H11.2874C11.3261 24.1175 11.3659 24.128 11.405 24.1393C11.4603 24.1556 11.5154 24.1726 11.5717 24.1874C11.6157 24.1991 11.6604 24.209 11.7049 24.2197C11.7624 24.2336 11.8194 24.2481 11.8778 24.2608C11.9225 24.2703 11.9681 24.2783 12.0133 24.2872C12.0725 24.2988 12.1316 24.3105 12.192 24.3206C12.2375 24.3282 12.2836 24.3341 12.3296 24.3409C12.3905 24.3499 12.4515 24.3591 12.5132 24.3666C12.5598 24.3722 12.6071 24.3764 12.654 24.3812C12.7166 24.3877 12.7788 24.3943 12.8421 24.399C12.8893 24.4026 12.9373 24.4049 12.9853 24.4075C13.0493 24.4113 13.1131 24.4151 13.1776 24.4174C13.226 24.4189 13.2754 24.4193 13.3243 24.4203C13.3731 24.4212 13.4213 24.4233 13.4706 24.4233C13.4852 24.4233 13.5 24.4222 13.5146 24.4222C13.6001 24.4219 13.6863 24.4193 13.7731 24.4163C13.8145 24.4149 13.8553 24.4146 13.8968 24.4125C14.0237 24.4066 14.1517 24.3979 14.2808 24.3866C14.3168 24.3835 14.3533 24.3786 14.3895 24.375C14.4856 24.3654 14.5821 24.3551 14.6794 24.3428C14.7304 24.3362 14.7822 24.3282 14.8336 24.3209C14.9176 24.3089 15.0013 24.2966 15.0862 24.2823C15.142 24.2729 15.1979 24.2627 15.2539 24.2526C15.3361 24.2376 15.4189 24.2216 15.5021 24.2046C15.5593 24.193 15.6164 24.1808 15.6737 24.1683C15.7591 24.1495 15.8446 24.1295 15.9305 24.1088C15.9857 24.0954 16.0408 24.0824 16.0965 24.0682C16.1914 24.044 16.2868 24.0176 16.3826 23.9908C16.4299 23.9776 16.4768 23.9653 16.5246 23.9515C16.6682 23.9098 16.8126 23.8657 16.9581 23.8184C17.319 23.7009 17.6823 23.5674 18.047 23.4182C20.6002 22.3746 23.2236 20.5721 25.5409 18.2548C26.3184 17.4773 27.0257 16.6807 27.6633 15.8758V41.8368H11.2868V24.1054H11.2872ZM7.61681 53.364H21.5842C22.687 53.364 23.5813 52.4698 23.5813 51.3669C23.5813 50.264 22.687 49.3698 21.5842 49.3698H7.61681V45.8314H9.29025H29.6611H31.3828V56.8722H7.61681V53.364ZM34.3038 85.0055H34.3037H11.2874V70.9452C11.2874 69.8421 10.3932 68.9481 9.29025 68.9481C8.18714 68.9481 7.29314 69.8423 7.29314 70.9452V85.0055H4.69599V60.8666H5.28579C5.3946 60.885 5.50568 60.8968 5.61988 60.8968H33.3801C33.4942 60.8968 33.6052 60.885 33.7142 60.8666H34.3038V85.0055Z" fill="#E0E0E0"/>
</svg>
