<svg width="46" height="46" viewBox="0 0 46 46" fill="none" xmlns="http://www.w3.org/2000/svg">
<path fill-rule="evenodd" clip-rule="evenodd" d="M0 23C0 10.2975 10.2975 0 23 0C35.7025 0 46 10.2975 46 23C46 35.7025 35.7025 46 23 46C10.2975 46 0 35.7025 0 23ZM31.7688 16.5312C32.775 16.3875 33.6375 16.2438 34.5 15.8125C33.925 16.8187 33.0625 17.6813 32.0562 18.2562C32.3438 25.0125 27.4563 32.3438 18.6875 32.3438C16.1 32.3438 13.6562 31.4812 11.5 30.1875C13.9437 30.475 16.5312 29.7562 18.2562 28.4625C16.1 28.4625 14.375 27.025 13.8 25.1562C14.5188 25.3 15.2375 25.1562 15.9563 25.0125C13.8 24.4375 12.2188 22.425 12.2188 20.2688C12.9375 20.5563 13.6562 20.8438 14.375 20.8438C12.3625 19.4062 11.6438 16.675 12.9375 14.5188C15.3812 17.3938 18.8313 19.2625 22.7125 19.4062C21.9938 16.5312 24.2937 13.6562 27.3125 13.6562C28.6062 13.6562 29.9 14.2312 30.7625 15.0938C31.9125 14.8063 32.9187 14.5187 33.7812 13.9437C33.4937 15.0938 32.775 15.9563 31.7688 16.5312Z" fill="#4CE0D7"/>
</svg>
