<svg width="64" height="86" viewBox="0 0 64 86" fill="none" xmlns="http://www.w3.org/2000/svg">
<path d="M51.7087 37.9501C48.7169 34.8894 46.7728 31.0009 46.087 26.7055C45.4013 22.4135 45.7331 18.5078 47.0729 15.0968C51.5493 3.70286 51.6785 0.369866 51.6785 0.0273789H48.7773L48.7778 0C48.7741 0.100781 48.6755 2.07878 46.5081 8.30268C45.4484 8.00739 43.8674 7.68892 42.0277 7.71277C39.254 7.74872 35.3887 8.58302 31.9993 12.1376C28.61 8.58285 24.7447 7.74872 21.9709 7.71277C20.1283 7.68993 18.5489 8.00773 17.4905 8.30251C15.3231 2.07878 15.2245 0.100781 15.2208 0L15.2211 0.0272109H12.32C12.32 0.369698 12.4491 3.70253 16.9255 15.0968C18.2655 18.5074 18.5971 22.4134 17.9115 26.7055C17.2255 31.0009 15.2814 34.8894 12.2897 37.9501C9.28275 41.0266 6.74508 44.7396 4.7476 48.9855C4.40662 49.7104 4.71787 50.5746 5.44265 50.9156C5.6422 51.0093 5.85233 51.0538 6.05926 51.0538C6.60365 51.0538 7.1257 50.7458 7.37295 50.2202C9.23219 46.2679 11.5844 42.8219 14.3645 39.9778C16.087 38.2157 17.504 36.2137 18.5863 34.0346H36.7096C37.511 34.0346 38.1602 33.3851 38.1602 32.584C38.1602 31.783 37.5108 31.1334 36.7096 31.1334H19.7898C20.2256 29.852 20.5588 28.5262 20.7767 27.1628C21.5451 22.3519 21.1581 17.9352 19.6259 14.0356C19.203 12.9589 18.8212 11.9599 18.4755 11.0313C20.931 10.3778 26.5447 9.69178 30.8527 15.2499C31.1274 15.6044 31.5508 15.8117 31.9993 15.8117C32.4478 15.8117 32.8712 15.6041 33.1458 15.2499C37.4537 9.69178 43.0676 10.3779 45.5231 11.0313C45.1774 11.9597 44.7956 12.9589 44.3727 14.0356C42.8407 17.9357 42.4535 22.3522 43.2221 27.1627C43.44 28.5261 43.7732 29.8518 44.2089 31.1334H41.8293C41.0279 31.1334 40.3787 31.783 40.3787 32.584C40.3787 33.3851 41.0281 34.0346 41.8293 34.0346H45.4122C46.4948 36.2137 47.9116 38.2155 49.6341 39.9778C56.4033 46.903 60.4797 57.143 61.0021 68.3615C57.9005 70.0815 54.1036 69.9409 51.1238 67.9414C50.6315 67.6044 49.9827 67.6056 49.4905 67.938C46.2766 70.093 42.1238 70.0924 38.925 67.9459C38.4306 67.6038 37.7779 67.6046 37.2848 67.9384C34.07 70.0932 29.9178 70.092 26.6989 67.9316C26.2035 67.6012 25.5607 67.61 25.0763 67.9405C21.8624 70.0927 17.7119 70.0905 14.4955 67.9316C14.0067 67.6058 13.3698 67.6068 12.8825 67.9342C9.89718 69.9385 6.10193 70.0805 2.9977 68.361C3.22463 63.4788 4.12528 58.771 5.68873 54.3349C5.95479 53.5794 5.55838 52.751 4.80269 52.4847C4.04734 52.2189 3.21875 52.6153 2.95252 53.3708C1.01837 58.8593 0.0375977 64.7322 0.0375977 70.8256V84.5489C0.0375977 85.3501 0.687132 85.9995 1.48817 85.9995H62.5126C63.314 85.9995 63.9632 85.35 63.9632 84.5489V70.8256C63.962 57.8996 59.4961 45.9167 51.7087 37.9501ZM2.93774 71.5448C6.41687 72.9606 10.3675 72.7271 13.6902 70.8429C17.485 72.9945 22.0989 72.9944 25.8936 70.8429C29.6892 72.9952 34.3037 72.9952 38.0989 70.8429C39.9966 71.9189 42.0994 72.457 44.2019 72.457C46.3043 72.457 48.4071 71.919 50.3047 70.8429C53.6259 72.7268 57.5753 72.9609 61.061 71.543V75.1897C57.9487 76.9441 54.1224 76.8138 51.1238 74.8015C50.6315 74.4646 49.9827 74.4658 49.4905 74.7982C46.2766 76.9532 42.1238 76.9525 38.925 74.8061C38.4335 74.4659 37.7831 74.4636 37.2885 74.7958C34.074 76.9525 29.9193 76.9532 26.6987 74.7918C26.2101 74.4661 25.5728 74.4675 25.085 74.7947C21.8698 76.9527 17.7149 76.9527 14.4953 74.7918C14.0065 74.4659 13.3698 74.4668 12.8823 74.7943C9.87819 76.8111 6.05339 76.943 2.93808 75.189V71.5448H2.93774ZM61.0612 83.0985H2.93774V78.4051C6.41687 79.8206 10.3675 79.5871 13.6904 77.7032C17.4862 79.8555 22.1011 79.8552 25.894 77.7034C29.6897 79.8559 34.3037 79.8555 38.0991 77.7034C39.9971 78.7797 42.0992 79.3179 44.202 79.3175C46.3045 79.3175 48.4073 78.7795 50.3048 77.7034C53.6261 79.5873 57.5755 79.8214 61.0612 78.4035V83.0985Z" fill="#E0E0E0"/>
</svg>
